<svg width="18" height="18" viewBox="0 0 18 18" fill="none" xmlns="http://www.w3.org/2000/svg">
<path fill-rule="evenodd" clip-rule="evenodd" d="M8.67369 0C8.89982 0 9.11669 0.0888948 9.27659 0.247129C9.43649 0.405362 9.52632 0.619974 9.52632 0.84375V3.375H13.6576C14.1283 3.375 14.583 3.54038 14.9422 3.84075L17.2955 5.8095C17.5163 5.99431 17.6936 6.22452 17.8153 6.48409C17.937 6.74367 18 7.02636 18 7.3125C18 7.59864 17.937 7.88133 17.8153 8.14091C17.6936 8.40048 17.5163 8.63069 17.2955 8.8155L14.9422 10.7843C14.5831 11.0849 14.128 11.2499 13.6576 11.25H9.52632V17.1562C9.52632 17.38 9.43649 17.5946 9.27659 17.7529C9.11669 17.9111 8.89982 18 8.67369 18C8.44756 18 8.23069 17.9111 8.07079 17.7529C7.91089 17.5946 7.82106 17.38 7.82106 17.1562V11.25H2.98948C2.46183 11.25 1.9558 11.0426 1.5827 10.6734C1.2096 10.3042 1 9.80339 1 9.28125V5.34375C1 4.257 1.89129 3.375 2.98948 3.375H7.82106V0.84375C7.82106 0.619974 7.91089 0.405362 8.07079 0.247129C8.23069 0.0888948 8.44756 0 8.67369 0ZM8.67369 9.5625H13.6576C13.7248 9.56211 13.7896 9.53819 13.8406 9.495L16.1939 7.52625C16.2251 7.49985 16.2502 7.46707 16.2673 7.43017C16.2845 7.39327 16.2934 7.35313 16.2934 7.3125C16.2934 7.27187 16.2845 7.23173 16.2673 7.19483C16.2502 7.15793 16.2251 7.12515 16.1939 7.09875L13.8406 5.13C13.7896 5.08681 13.7248 5.06289 13.6576 5.0625H2.98948C2.9141 5.0625 2.84181 5.09213 2.78851 5.14488C2.73521 5.19762 2.70526 5.26916 2.70526 5.34375V9.28125C2.70526 9.4365 2.83259 9.5625 2.98948 9.5625H8.67369Z" fill="#8A8A95"/>
</svg>
