<svg width="current" height="current" viewBox="0 0 16 16" fill="none" xmlns="http://www.w3.org/2000/svg">
<path fill-rule="evenodd" clip-rule="evenodd" d="M8 2.13333C4.75993 2.13333 2.13333 4.75992 2.13333 7.99999C2.13333 11.2401 4.75993 13.8667 8 13.8667C11.2401 13.8667 13.8667 11.2401 13.8667 7.99999C13.8667 4.75992 11.2401 2.13333 8 2.13333ZM0.533333 7.99999C0.533333 3.87627 3.87627 0.533325 8 0.533325C12.1237 0.533325 15.4667 3.87627 15.4667 7.99999C15.4667 12.1237 12.1237 15.4667 8 15.4667C3.87627 15.4667 0.533333 12.1237 0.533333 7.99999ZM8 4.33331C8.55229 4.33331 9 4.78103 9 5.33331V7.99998C9 8.55226 8.55229 8.99998 8 8.99998C7.44772 8.99998 7 8.55226 7 7.99998V5.33331C7 4.78103 7.44772 4.33331 8 4.33331ZM8 9.66669C7.44772 9.66669 7 10.1144 7 10.6667C7 11.219 7.44772 11.6667 8 11.6667H8.00667C8.55895 11.6667 9.00667 11.219 9.00667 10.6667C9.00667 10.1144 8.55895 9.66669 8.00667 9.66669H8Z" fill="current"/>
</svg>
