<svg width="current" height="current" viewBox="0 0 16 14" fill="none" xmlns="http://www.w3.org/2000/svg">
<path fill-rule="evenodd" clip-rule="evenodd" d="M-0.133331 1.00001C-0.133331 0.558184 0.224841 0.200012 0.666669 0.200012H15.3333C15.7752 0.200012 16.1333 0.558184 16.1333 1.00001V4.33335C16.1333 4.77517 15.7752 5.13335 15.3333 5.13335H14.8V13C14.8 13.4418 14.4418 13.8 14 13.8H2.00001C1.55818 13.8 1.20001 13.4418 1.20001 13V5.13335H0.666669C0.224841 5.13335 -0.133331 4.77517 -0.133331 4.33335V1.00001ZM14 3.53333L14.0058 3.53335H14.5333V1.80001H1.46667V3.53335H1.99426L2.00001 3.53333L2.00577 3.53335H13.9943L14 3.53333ZM13.2 5.13335H2.80001V12.2H13.2V5.13335ZM6.66667 6.20001C6.22484 6.20001 5.86667 6.55818 5.86667 7.00001C5.86667 7.44184 6.22484 7.80001 6.66667 7.80001H9.33333C9.77516 7.80001 10.1333 7.44184 10.1333 7.00001C10.1333 6.55818 9.77516 6.20001 9.33333 6.20001H6.66667Z" fill="current"/>
</svg>
