<svg width="14" height="16" viewBox="0 0 14 16" fill="none" xmlns="http://www.w3.org/2000/svg">
<path fill-rule="evenodd" clip-rule="evenodd" d="M10.4667 1.33333C10.4667 0.891505 10.1085 0.533333 9.66667 0.533333C9.22484 0.533333 8.86667 0.891505 8.86667 1.33333V1.86667H5.13334V1.33333C5.13334 0.891505 4.77517 0.533333 4.33334 0.533333C3.89151 0.533333 3.53334 0.891505 3.53334 1.33333V1.86667H2.33333C1.15512 1.86667 0.199997 2.82179 0.199997 4V6.66667V13.3333C0.199997 14.5115 1.15512 15.4667 2.33333 15.4667H11.6667C12.8449 15.4667 13.8 14.5115 13.8 13.3333V6.66667V4C13.8 2.82179 12.8449 1.86667 11.6667 1.86667H10.4667V1.33333ZM12.2 5.86667V4C12.2 3.70545 11.9612 3.46667 11.6667 3.46667H10.4667V4C10.4667 4.44183 10.1085 4.8 9.66667 4.8C9.22484 4.8 8.86667 4.44183 8.86667 4V3.46667H5.13334V4C5.13334 4.44183 4.77517 4.8 4.33334 4.8C3.89151 4.8 3.53334 4.44183 3.53334 4V3.46667H2.33333C2.03878 3.46667 1.8 3.70545 1.8 4V5.86667H12.2ZM1.8 7.46667H12.2V13.3333C12.2 13.6279 11.9612 13.8667 11.6667 13.8667H2.33333C2.03878 13.8667 1.8 13.6279 1.8 13.3333V7.46667Z" fill="current"/>
</svg>
