<svg width="16" height="16" viewBox="0 0 16 16" fill="none" xmlns="http://www.w3.org/2000/svg">
<path d="M0 2C0 0.895431 0.895431 0 2 0H14C15.1046 0 16 0.895431 16 2V14C16 15.1046 15.1046 16 14 16H2C0.895431 16 0 15.1046 0 14V2Z" fill="current"/>
<path fill-rule="evenodd" clip-rule="evenodd" d="M11.2319 5.43381C11.5446 5.74595 11.545 6.25248 11.2329 6.56518L7.56621 10.2385C7.41623 10.3888 7.21267 10.4732 7.00038 10.4733C6.78808 10.4734 6.58444 10.3891 6.43433 10.239L4.43433 8.23903C4.12191 7.92661 4.12191 7.42008 4.43433 7.10766C4.74675 6.79524 5.25328 6.79524 5.5657 7.10766L6.9995 8.54146L10.1005 5.43484C10.4126 5.12214 10.9191 5.12168 11.2319 5.43381Z" fill="#FEFEFE"/>
</svg>
