<svg width="16" height="16" viewBox="0 0 16 16" fill="none" xmlns="http://www.w3.org/2000/svg">
<path fill-rule="evenodd" clip-rule="evenodd" d="M2.13333 8.00001C2.13333 4.75994 4.75992 2.13334 7.99999 2.13334C11.2401 2.13334 13.8667 4.75994 13.8667 8.00001C13.8667 11.2401 11.2401 13.8667 7.99999 13.8667C4.75992 13.8667 2.13333 11.2401 2.13333 8.00001ZM7.99999 0.53334C3.87627 0.53334 0.533325 3.87628 0.533325 8.00001C0.533325 12.1237 3.87627 15.4667 7.99999 15.4667C12.1237 15.4667 15.4667 12.1237 15.4667 8.00001C15.4667 3.87628 12.1237 0.53334 7.99999 0.53334ZM11.5662 6.89851C11.8783 6.58581 11.8779 6.07928 11.5652 5.76714C11.2525 5.45501 10.7459 5.45547 10.4338 5.76817L7.33281 8.87479L5.89901 7.44099C5.58659 7.12857 5.08006 7.12857 4.76764 7.44099C4.45522 7.75341 4.45522 8.25994 4.76764 8.57236L6.76764 10.5724C6.91776 10.7225 7.12139 10.8068 7.33369 10.8067C7.54599 10.8066 7.74954 10.7221 7.89952 10.5718L11.5662 6.89851Z" fill="current"/>
</svg>
