<svg width="16" height="16" viewBox="0 0 16 16" fill="none" xmlns="http://www.w3.org/2000/svg">
<path d="M0 2C0 0.895431 0.895431 0 2 0H14C15.1046 0 16 0.895431 16 2V14C16 15.1046 15.1046 16 14 16H2C0.895431 16 0 15.1046 0 14V2Z" fill="current"/>
<path fill-rule="evenodd" clip-rule="evenodd" d="M5.2 8.00001C5.2 7.55818 5.55817 7.20001 6 7.20001H10C10.4418 7.20001 10.8 7.55818 10.8 8.00001C10.8 8.44184 10.4418 8.80001 10 8.80001H6C5.55817 8.80001 5.2 8.44184 5.2 8.00001Z" fill="#FEFEFE"/>
</svg>
