<svg width="16" height="16" viewBox="0 0 16 16" fill="none" xmlns="http://www.w3.org/2000/svg">
<path fill-rule="evenodd" clip-rule="evenodd" d="M12.5657 0.76764C12.2533 0.45522 11.7467 0.45522 11.4343 0.76764L4.76765 7.43431C4.61763 7.58434 4.53334 7.78782 4.53334 7.99999V10.6667C4.53334 11.1085 4.89151 11.4667 5.33334 11.4667H8.00001C8.21218 11.4667 8.41566 11.3824 8.56569 11.2323L15.2324 4.56568C15.5448 4.25326 15.5448 3.74673 15.2324 3.43431L12.5657 0.76764ZM6.13334 9.86666V8.33136L12 2.4647L13.5353 3.99999L7.66864 9.86666H6.13334ZM2.28955 3.62288C2.38957 3.52286 2.52522 3.46667 2.66667 3.46667H6.22667C6.6685 3.46667 7.02667 3.1085 7.02667 2.66667C7.02667 2.22484 6.6685 1.86667 6.22667 1.86667H2.66667C2.10088 1.86667 1.55826 2.09143 1.15818 2.49151C0.758102 2.89159 0.53334 3.43421 0.53334 4V13.3333C0.53334 13.8991 0.758102 14.4418 1.15818 14.8418C1.55826 15.2419 2.10088 15.4667 2.66667 15.4667H12C12.5658 15.4667 13.1084 15.2419 13.5085 14.8418C13.9086 14.4418 14.1333 13.8991 14.1333 13.3333V9.77334C14.1333 9.33151 13.7752 8.97334 13.3333 8.97334C12.8915 8.97334 12.5333 9.33151 12.5333 9.77334V13.3333C12.5333 13.4748 12.4772 13.6104 12.3771 13.7105C12.2771 13.8105 12.1415 13.8667 12 13.8667H2.66667C2.52523 13.8667 2.38957 13.8105 2.28955 13.7105C2.18953 13.6104 2.13334 13.4748 2.13334 13.3333V4C2.13334 3.85855 2.18953 3.7229 2.28955 3.62288Z" fill="current"/>
</svg>
