<svg width="16" height="16" viewBox="0 0 16 16" fill="current" xmlns="http://www.w3.org/2000/svg">
<path fill-rule="evenodd" clip-rule="evenodd" d="M0.533333 1.33333C0.533333 0.891505 0.891505 0.533333 1.33333 0.533333H8C8.21217 0.533333 8.41566 0.617618 8.56569 0.767647L14.294 6.496C14.6914 6.89571 14.9144 7.4364 14.9144 8C14.9144 8.5636 14.6914 9.10429 14.294 9.504L14.2924 9.50568L9.51267 14.2854C9.31454 14.4837 9.07926 14.6411 8.82027 14.7484C8.56129 14.8558 8.28368 14.911 8.00333 14.911C7.72298 14.911 7.44538 14.8558 7.18639 14.7484C6.92746 14.6411 6.69223 14.4838 6.49412 14.2855C6.49408 14.2855 6.49417 14.2855 6.49412 14.2855L0.767977 8.56601C0.617746 8.41596 0.533333 8.21233 0.533333 8V1.33333ZM2.13333 2.13333V7.66836L7.62536 13.154C7.67489 13.2036 7.73435 13.2436 7.7991 13.2704C7.86384 13.2972 7.93324 13.311 8.00333 13.311C8.07342 13.311 8.14283 13.2972 8.20757 13.2704C8.27231 13.2436 8.33113 13.2042 8.38067 13.1546L13.1593 8.376C13.1591 8.37623 13.1595 8.37577 13.1593 8.376C13.2582 8.27614 13.3144 8.14058 13.3144 8C13.3144 7.8594 13.2589 7.72449 13.1599 7.62463C13.1597 7.62442 13.1601 7.62484 13.1599 7.62463L7.66863 2.13333H2.13333ZM3.86667 4.66667C3.86667 4.22484 4.22484 3.86667 4.66667 3.86667H4.67333C5.11516 3.86667 5.47333 4.22484 5.47333 4.66667C5.47333 5.10849 5.11516 5.46667 4.67333 5.46667H4.66667C4.22484 5.46667 3.86667 5.10849 3.86667 4.66667Z" fill="current"/>
</svg>
