<svg width="339" height="43" viewBox="0 0 339 43" fill="none" xmlns="http://www.w3.org/2000/svg">
<path d="M0.472 42L8.312 2.8H12.4L4.56 42H0.472ZM22.8584 42.28C20.4691 42.28 18.2104 41.944 16.0824 41.272C13.9544 40.6 12.3118 39.7413 11.1544 38.696L13.0584 35.56C14.1784 36.568 15.6531 37.3707 17.4824 37.968C19.3118 38.528 21.2344 38.808 23.2504 38.808C26.0504 38.808 28.1971 38.3413 29.6904 37.408C31.2211 36.4747 31.9864 35.1867 31.9864 33.544C31.9864 32.424 31.5758 31.584 30.7544 31.024C29.9704 30.4267 28.9438 29.9787 27.6744 29.68C26.4051 29.344 25.0611 29.0267 23.6424 28.728C22.2238 28.4293 20.8798 28.056 19.6104 27.608C18.3411 27.1227 17.2958 26.3947 16.4744 25.424C15.6904 24.4533 15.2984 23.1467 15.2984 21.504C15.2984 19.6373 15.8211 18.0133 16.8664 16.632C17.9491 15.2507 19.4424 14.1867 21.3464 13.44C23.2504 12.6933 25.4904 12.32 28.0664 12.32C29.9331 12.32 31.7811 12.5627 33.6104 13.048C35.4398 13.5333 36.9144 14.2053 38.0344 15.064L36.3544 18.256C35.1971 17.36 33.8531 16.7253 32.3224 16.352C30.7918 15.9413 29.2611 15.736 27.7304 15.736C25.0051 15.736 22.8958 16.24 21.4024 17.248C19.9464 18.2187 19.2184 19.5067 19.2184 21.112C19.2184 22.232 19.6104 23.0907 20.3944 23.688C21.2158 24.2853 22.2611 24.752 23.5304 25.088C24.7998 25.424 26.1438 25.7413 27.5624 26.04C29.0184 26.3013 30.3624 26.6747 31.5944 27.16C32.8638 27.6453 33.8904 28.3547 34.6744 29.288C35.4958 30.184 35.9064 31.4533 35.9064 33.096C35.9064 35.0373 35.3651 36.6987 34.2824 38.08C33.1998 39.424 31.6691 40.4693 29.6904 41.216C27.7491 41.9253 25.4718 42.28 22.8584 42.28ZM47.9622 42.28C45.5729 42.28 43.3142 41.944 41.1862 41.272C39.0582 40.6 37.4155 39.7413 36.2582 38.696L38.1622 35.56C39.2822 36.568 40.7569 37.3707 42.5862 37.968C44.4155 38.528 46.3382 38.808 48.3542 38.808C51.1542 38.808 53.3009 38.3413 54.7942 37.408C56.3249 36.4747 57.0902 35.1867 57.0902 33.544C57.0902 32.424 56.6795 31.584 55.8582 31.024C55.0742 30.4267 54.0475 29.9787 52.7782 29.68C51.5089 29.344 50.1649 29.0267 48.7462 28.728C47.3275 28.4293 45.9835 28.056 44.7142 27.608C43.4449 27.1227 42.3995 26.3947 41.5782 25.424C40.7942 24.4533 40.4022 23.1467 40.4022 21.504C40.4022 19.6373 40.9249 18.0133 41.9702 16.632C43.0529 15.2507 44.5462 14.1867 46.4502 13.44C48.3542 12.6933 50.5942 12.32 53.1702 12.32C55.0369 12.32 56.8849 12.5627 58.7142 13.048C60.5435 13.5333 62.0182 14.2053 63.1382 15.064L61.4582 18.256C60.3009 17.36 58.9569 16.7253 57.4262 16.352C55.8955 15.9413 54.3649 15.736 52.8342 15.736C50.1089 15.736 47.9995 16.24 46.5062 17.248C45.0502 18.2187 44.3222 19.5067 44.3222 21.112C44.3222 22.232 44.7142 23.0907 45.4982 23.688C46.3195 24.2853 47.3649 24.752 48.6342 25.088C49.9035 25.424 51.2475 25.7413 52.6662 26.04C54.1222 26.3013 55.4662 26.6747 56.6982 27.16C57.9675 27.6453 58.9942 28.3547 59.7782 29.288C60.5995 30.184 61.0102 31.4533 61.0102 33.096C61.0102 35.0373 60.4689 36.6987 59.3862 38.08C58.3035 39.424 56.7729 40.4693 54.7942 41.216C52.8529 41.9253 50.5755 42.28 47.9622 42.28ZM76.8179 42.28C74.2419 42.28 72.0953 41.7573 70.3779 40.712C68.6979 39.6667 67.5406 38.1733 66.9059 36.232C66.2713 34.2907 66.1966 31.9947 66.6819 29.344L70.0419 12.6H74.0179L70.6579 29.344C70.0979 32.256 70.4153 34.552 71.6099 36.232C72.8046 37.8747 74.8953 38.696 77.8819 38.696C80.9806 38.696 83.5566 37.8373 85.6099 36.12C87.7006 34.4027 89.1006 31.8267 89.8099 28.392L92.9459 12.6H96.9219L91.0419 42H87.2339L88.9139 33.544L89.7539 34.944C88.3726 37.4827 86.5433 39.3493 84.2659 40.544C82.0259 41.7013 79.5433 42.28 76.8179 42.28ZM113.323 42.28C110.523 42.28 108.078 41.776 105.987 40.768C103.934 39.7227 102.347 38.2667 101.227 36.4C100.144 34.5333 99.6029 32.312 99.6029 29.736C99.6029 26.376 100.312 23.3893 101.731 20.776C103.15 18.1627 105.091 16.1093 107.555 14.616C110.019 13.0853 112.8 12.32 115.899 12.32C118.512 12.32 120.771 12.824 122.675 13.832C124.579 14.8027 126.054 16.2213 127.099 18.088C128.182 19.9547 128.723 22.1947 128.723 24.808C128.723 25.4053 128.686 26.0213 128.611 26.656C128.536 27.2533 128.443 27.832 128.331 28.392H102.515L103.019 25.424H126.483L124.859 26.544C125.232 24.192 125.064 22.2133 124.355 20.608C123.646 19.0027 122.544 17.7893 121.051 16.968C119.595 16.1093 117.84 15.68 115.787 15.68C113.398 15.68 111.27 16.2773 109.403 17.472C107.536 18.6293 106.08 20.2533 105.035 22.344C103.99 24.3973 103.467 26.8053 103.467 29.568C103.467 32.5173 104.307 34.7947 105.987 36.4C107.704 37.968 110.262 38.752 113.659 38.752C115.638 38.752 117.467 38.4347 119.147 37.8C120.827 37.128 122.208 36.2133 123.291 35.056L125.083 37.912C123.702 39.2933 121.966 40.376 119.875 41.16C117.822 41.9067 115.638 42.28 113.323 42.28ZM152.312 42L159.424 6.384H145.592L146.32 2.8H178.016L177.288 6.384H163.512L156.4 42H152.312ZM173.007 42L178.831 12.6H182.639L180.959 21.28L180.511 19.768C181.817 17.192 183.535 15.3067 185.663 14.112C187.828 12.9173 190.516 12.32 193.727 12.32L192.999 16.184C192.812 16.184 192.625 16.184 192.439 16.184C192.289 16.1467 192.103 16.128 191.879 16.128C188.743 16.128 186.148 17.0427 184.095 18.872C182.079 20.664 180.697 23.3893 179.951 27.048L176.983 42H173.007ZM205.076 42.28C202.575 42.28 200.354 41.776 198.412 40.768C196.471 39.76 194.959 38.3227 193.876 36.456C192.794 34.5893 192.252 32.368 192.252 29.792C192.252 27.2907 192.663 24.976 193.484 22.848C194.306 20.72 195.463 18.872 196.956 17.304C198.45 15.6987 200.204 14.4667 202.22 13.608C204.274 12.7493 206.495 12.32 208.884 12.32C211.46 12.32 213.644 12.7867 215.436 13.72C217.228 14.616 218.61 15.9413 219.58 17.696C220.551 19.4133 221.036 21.504 221.036 23.968C221.036 27.5147 220.383 30.6693 219.076 33.432C217.77 36.1947 215.922 38.36 213.532 39.928C211.143 41.496 208.324 42.28 205.076 42.28ZM205.916 38.752C208.38 38.752 210.564 38.1733 212.468 37.016C214.41 35.8213 215.922 34.1787 217.004 32.088C218.124 29.9973 218.684 27.6267 218.684 24.976C218.684 22.064 217.826 19.8053 216.108 18.2C214.428 16.5947 212.058 15.792 208.996 15.792C206.57 15.792 204.386 16.3893 202.444 17.584C200.503 18.7787 198.972 20.4213 197.852 22.512C196.77 24.5653 196.228 26.936 196.228 29.624C196.228 32.4987 197.068 34.7387 198.748 36.344C200.466 37.9493 202.855 38.752 205.916 38.752ZM215.604 42L217.284 33.544L218.964 27.608L219.524 21.448L221.316 12.6H225.292L219.412 42H215.604ZM241.573 42.28C238.773 42.28 236.347 41.776 234.293 40.768C232.277 39.7227 230.709 38.2667 229.589 36.4C228.507 34.5333 227.965 32.3307 227.965 29.792C227.965 26.432 228.693 23.4453 230.149 20.832C231.605 18.1813 233.621 16.1093 236.197 14.616C238.811 13.0853 241.779 12.32 245.101 12.32C247.827 12.32 250.16 12.824 252.101 13.832C254.08 14.8027 255.611 16.2587 256.693 18.2L253.333 20.16C252.512 18.6667 251.373 17.5653 249.917 16.856C248.499 16.1467 246.781 15.792 244.765 15.792C242.301 15.792 240.099 16.3893 238.157 17.584C236.216 18.7787 234.685 20.4213 233.565 22.512C232.483 24.5653 231.941 26.936 231.941 29.624C231.941 32.4987 232.781 34.7387 234.461 36.344C236.179 37.9493 238.605 38.752 241.741 38.752C243.645 38.752 245.4 38.3973 247.005 37.688C248.648 36.9413 249.992 35.8773 251.037 34.496L253.893 36.68C252.624 38.4347 250.888 39.816 248.685 40.824C246.483 41.7947 244.112 42.28 241.573 42.28ZM261.883 34.16L262.667 29.288L284.059 12.6H289.715L273.643 25.088L271.459 26.768L261.883 34.16ZM257.123 42L265.411 0.447998H269.387L261.099 42H257.123ZM280.083 42L270.787 26.712L273.531 23.744L284.731 42H280.083ZM300.151 42.28C297.351 42.28 294.905 41.776 292.815 40.768C290.761 39.7227 289.175 38.2667 288.055 36.4C286.972 34.5333 286.431 32.312 286.431 29.736C286.431 26.376 287.14 23.3893 288.559 20.776C289.977 18.1627 291.919 16.1093 294.383 14.616C296.847 13.0853 299.628 12.32 302.727 12.32C305.34 12.32 307.599 12.824 309.503 13.832C311.407 14.8027 312.881 16.2213 313.927 18.088C315.009 19.9547 315.551 22.1947 315.551 24.808C315.551 25.4053 315.513 26.0213 315.439 26.656C315.364 27.2533 315.271 27.832 315.159 28.392H289.343L289.847 25.424H313.311L311.687 26.544C312.06 24.192 311.892 22.2133 311.183 20.608C310.473 19.0027 309.372 17.7893 307.879 16.968C306.423 16.1093 304.668 15.68 302.615 15.68C300.225 15.68 298.097 16.2773 296.231 17.472C294.364 18.6293 292.908 20.2533 291.863 22.344C290.817 24.3973 290.295 26.8053 290.295 29.568C290.295 32.5173 291.135 34.7947 292.815 36.4C294.532 37.968 297.089 38.752 300.487 38.752C302.465 38.752 304.295 38.4347 305.975 37.8C307.655 37.128 309.036 36.2133 310.119 35.056L311.911 37.912C310.529 39.2933 308.793 40.376 306.703 41.16C304.649 41.9067 302.465 42.28 300.151 42.28ZM318.268 42L324.092 12.6H327.9L326.22 21.28L325.772 19.768C327.078 17.192 328.796 15.3067 330.924 14.112C333.089 12.9173 335.777 12.32 338.988 12.32L338.26 16.184C338.073 16.184 337.886 16.184 337.7 16.184C337.55 16.1467 337.364 16.128 337.14 16.128C334.004 16.128 331.409 17.0427 329.356 18.872C327.34 20.664 325.958 23.3893 325.212 27.048L322.244 42H318.268Z" fill="#FEFEFE"/>
</svg>
