<svg width="16" height="16" viewBox="0 0 16 16" fill="none" xmlns="http://www.w3.org/2000/svg">
<path fill-rule="evenodd" clip-rule="evenodd" d="M10.52 1.72519C10.0245 1.72519 9.54935 1.92201 9.199 2.27235L3.07233 8.39902C2.4718 8.99955 2.13442 9.81405 2.13442 10.6633C2.13442 11.5126 2.4718 12.3271 3.07233 12.9276C3.67287 13.5282 4.48737 13.8656 5.33665 13.8656C6.18593 13.8656 7.00043 13.5282 7.60096 12.9276L13.7276 6.80098C14.0401 6.48856 14.5466 6.48856 14.859 6.80098C15.1714 7.1134 15.1714 7.61993 14.859 7.93235L8.73233 14.059C7.83174 14.9596 6.61028 15.4656 5.33665 15.4656C4.06302 15.4656 2.84155 14.9596 1.94096 14.059C1.04037 13.1584 0.534424 11.937 0.534424 10.6633C0.534424 9.38971 1.04037 8.16824 1.94096 7.26765L8.06763 1.14098C8.71803 0.490578 9.60017 0.125185 10.52 0.125185C11.4398 0.125185 12.3219 0.490578 12.9723 1.14098C13.6227 1.79139 13.9881 2.67352 13.9881 3.59333C13.9881 4.51314 13.6227 5.39528 12.9723 6.04569L6.839 12.1724C6.8389 12.1725 6.8391 12.1722 6.839 12.1724C6.43881 12.5724 5.89583 12.7974 5.32998 12.7974C4.76399 12.7974 4.22118 12.5726 3.82096 12.1724C3.42075 11.7721 3.19591 11.2293 3.19591 10.6633C3.19591 10.0973 3.42075 9.55453 3.82096 9.15432L9.4813 3.50065C9.7939 3.18841 10.3004 3.18871 10.6127 3.50132C10.9249 3.81392 10.9246 4.32045 10.612 4.63269L4.95233 10.2857C4.85218 10.3858 4.79591 10.5217 4.79591 10.6633C4.79591 10.805 4.85218 10.9408 4.95233 11.041C5.05249 11.1411 5.18834 11.1974 5.32998 11.1974C5.47163 11.1974 5.60747 11.1411 5.70763 11.041L11.841 4.91432C12.1911 4.564 12.3881 4.08865 12.3881 3.59333C12.3881 3.09787 12.1913 2.6227 11.841 2.27235C11.4906 1.92201 11.0154 1.72519 10.52 1.72519Z" fill="current"/>
</svg>
