<svg width="12" height="12" viewBox="0 0 12 12" fill="none" xmlns="http://www.w3.org/2000/svg">
<path fill-rule="evenodd" clip-rule="evenodd" d="M6.8 1.33333C6.8 0.891497 6.44183 0.533325 6 0.533325C5.55817 0.533325 5.2 0.891497 5.2 1.33333V5.20001H1.33333C0.891505 5.20001 0.533333 5.55818 0.533333 6.00001C0.533333 6.44184 0.891505 6.80001 1.33333 6.80001H5.2V10.6667C5.2 11.1085 5.55817 11.4667 6 11.4667C6.44183 11.4667 6.8 11.1085 6.8 10.6667V6.80001H10.6667C11.1085 6.80001 11.4667 6.44184 11.4667 6.00001C11.4667 5.55818 11.1085 5.20001 10.6667 5.20001H6.8V1.33333Z" fill="current"/>
</svg>
