<svg width="current" height="current" viewBox="0 0 14 14" fill="none" xmlns="http://www.w3.org/2000/svg">
<path fill-rule="evenodd" clip-rule="evenodd" d="M1.8 6.33335C1.8 3.82965 3.82964 1.80001 6.33333 1.80001C8.83702 1.80001 10.8667 3.82965 10.8667 6.33335C10.8667 7.55124 10.3864 8.65696 9.60494 9.47146C9.58048 9.49077 9.55688 9.51172 9.5343 9.5343C9.51172 9.55688 9.49077 9.58048 9.47145 9.60494C8.65695 10.3864 7.55123 10.8667 6.33333 10.8667C3.82964 10.8667 1.8 8.83704 1.8 6.33335ZM10.0677 11.1991C9.03351 11.9941 7.73861 12.4667 6.33333 12.4667C2.94598 12.4667 0.199997 9.72069 0.199997 6.33335C0.199997 2.946 2.94598 0.200012 6.33333 0.200012C9.72068 0.200012 12.4667 2.946 12.4667 6.33335C12.4667 7.73862 11.9941 9.03351 11.1991 10.0677L13.5657 12.4343C13.8781 12.7467 13.8781 13.2533 13.5657 13.5657C13.2533 13.8781 12.7467 13.8781 12.4343 13.5657L10.0677 11.1991Z" fill="current"/>
</svg>
