<svg width="16" height="16" viewBox="0 0 16 16" fill="none" xmlns="http://www.w3.org/2000/svg">
<path fill-rule="evenodd" clip-rule="evenodd" d="M2.13333 7.99999C2.13333 4.75992 4.75992 2.13333 7.99999 2.13333C11.2401 2.13333 13.8667 4.75992 13.8667 7.99999C13.8667 11.2401 11.2401 13.8667 7.99999 13.8667C4.75992 13.8667 2.13333 11.2401 2.13333 7.99999ZM7.99999 0.533325C3.87627 0.533325 0.533325 3.87627 0.533325 7.99999C0.533325 12.1237 3.87627 15.4667 7.99999 15.4667C12.1237 15.4667 15.4667 12.1237 15.4667 7.99999C15.4667 3.87627 12.1237 0.533325 7.99999 0.533325ZM4.85334 8.69334C5.20551 8.42921 5.70459 8.49936 5.97043 8.84948L5.97044 8.84949L5.97222 8.85175C5.97543 8.85581 5.98217 8.86421 5.99235 8.87634C6.01275 8.90065 6.04661 8.93951 6.09322 8.98815C6.18711 9.08611 6.32876 9.2196 6.51221 9.35302C6.88219 9.6221 7.3871 9.86668 8.00001 9.86668C8.61292 9.86668 9.11782 9.6221 9.4878 9.35302C9.67126 9.2196 9.81291 9.08611 9.90679 8.98815C9.9534 8.93951 9.98727 8.90065 10.0077 8.87634C10.0178 8.86421 10.0246 8.85581 10.0278 8.85175L10.027 8.85286L10.0274 8.8524L10.0278 8.85175L10.0296 8.8495L10.0296 8.84949C10.2954 8.49936 10.7945 8.42921 11.1467 8.69334C11.5001 8.95844 11.5718 9.45988 11.3067 9.81334L10.6667 9.33334C11.3067 9.81334 11.3065 9.8136 11.3063 9.81386L11.3059 9.8144L11.305 9.81559L11.3029 9.81834L11.2976 9.82531L11.2823 9.84488C11.27 9.86035 11.2537 9.8806 11.2332 9.90493C11.1924 9.95354 11.1352 10.0188 11.062 10.0952C10.9163 10.2472 10.7038 10.4471 10.4289 10.647C9.88219 11.0446 9.05377 11.4667 8.00001 11.4667C6.94625 11.4667 6.11782 11.0446 5.57114 10.647C5.29625 10.4471 5.08375 10.2472 4.93804 10.0952C4.86486 10.0188 4.80758 9.95354 4.76679 9.90493C4.74636 9.8806 4.72999 9.86035 4.71774 9.84488L4.70245 9.82531L4.69712 9.81834L4.69504 9.81559L4.69414 9.8144L4.69373 9.81386C4.69353 9.8136 4.69334 9.81334 5.33334 9.33334L4.69334 9.81334C4.42825 9.45988 4.49988 8.95844 4.85334 8.69334ZM5.20001 6.00001C5.20001 5.55818 5.55818 5.20001 6.00001 5.20001H6.00668C6.44851 5.20001 6.80668 5.55818 6.80668 6.00001C6.80668 6.44184 6.44851 6.80001 6.00668 6.80001H6.00001C5.55818 6.80001 5.20001 6.44184 5.20001 6.00001ZM10 5.20001C9.55818 5.20001 9.20001 5.55818 9.20001 6.00001C9.20001 6.44184 9.55818 6.80001 10 6.80001H10.0067C10.4485 6.80001 10.8067 6.44184 10.8067 6.00001C10.8067 5.55818 10.4485 5.20001 10.0067 5.20001H10Z" fill="current"/>
</svg>
