<svg width="current" height="current" viewBox="0 0 10 10" fill="none" xmlns="http://www.w3.org/2000/svg">
<path fill-rule="evenodd" clip-rule="evenodd" d="M1.13442 1.13449C1.44683 0.822072 1.95337 0.822072 2.26579 1.13449L4.99999 3.8687L7.73413 1.13456C8.04655 0.822137 8.55308 0.822137 8.8655 1.13456C9.17792 1.44698 9.17792 1.95351 8.8655 2.26593L6.13136 5.00007L8.86545 7.73415C9.17787 8.04657 9.17787 8.55311 8.86545 8.86553C8.55303 9.17794 8.0465 9.17794 7.73408 8.86553L4.99999 6.13144L2.26584 8.86559C1.95342 9.17801 1.44688 9.17801 1.13447 8.86559C0.822046 8.55317 0.822046 8.04664 1.13447 7.73422L3.86862 5.00007L1.13442 2.26586C0.821996 1.95344 0.821996 1.44691 1.13442 1.13449Z" fill="current"/>
</svg>
